<svg xmlns="http://www.w3.org/2000/svg" viewBox="0 0 205.91 78.38"><defs><style>.cls-1{fill:#040000;}</style></defs><title>fav</title><g id="Layer_2" data-name="Layer 2"><g id="レイヤー_1" data-name="レイヤー 1"><path class="cls-1" d="M78.5,0A28.82,28.82,0,0,1,90.21,2.39a30.62,30.62,0,0,1,16,16,29,29,0,0,1,2.39,11.72,28.62,28.62,0,0,1-2.39,11.71,30.62,30.62,0,0,1-16,16A26.61,26.61,0,0,1,78.5,60.29,28.67,28.67,0,0,1,66.78,57.9a30.62,30.62,0,0,1-16-16,29,29,0,0,1-2.39-11.71,28.67,28.67,0,0,1,2.39-11.72,30.62,30.62,0,0,1,16-16A28.83,28.83,0,0,1,78.5,0Zm.11,48.58a17.32,17.32,0,0,0,7.17-1.48,17.66,17.66,0,0,0,5.91-4A18.73,18.73,0,0,0,97.15,30a17.08,17.08,0,0,0-1.48-7.16,17.46,17.46,0,0,0-4-5.92,18.68,18.68,0,0,0-13.08-5.46A17.16,17.16,0,0,0,71.44,13a17.42,17.42,0,0,0-5.91,4,19.42,19.42,0,0,0-4,5.92A17.23,17.23,0,0,0,60.07,30a17.28,17.28,0,0,0,1.47,7.17,19.42,19.42,0,0,0,4,5.92,19.52,19.52,0,0,0,5.91,4A17.32,17.32,0,0,0,78.61,48.58Z"/><path class="cls-1" d="M43.12,43.8a17.62,17.62,0,0,0,4.43-7.17,17.9,17.9,0,0,0,.8-8.08L60,27.08A31.22,31.22,0,0,1,58.7,40.39a29.41,29.41,0,0,1-7.28,11.83,29.6,29.6,0,0,1-9.9,6.59,30.25,30.25,0,0,1-22.75.12,29,29,0,0,1-10-6.6,29.63,29.63,0,0,1-6.6-9.9A32.16,32.16,0,0,1,0,30.83,30.29,30.29,0,0,1,2.28,19.45,29.46,29.46,0,0,1,8.87,9.56,28.93,28.93,0,0,1,20.59,2.28,29.41,29.41,0,0,1,33.9,1L32.42,12.63a17.74,17.74,0,0,0-8.08.79,19.84,19.84,0,0,0-7.16,4.44,19.61,19.61,0,0,0-4.1,6,18.39,18.39,0,0,0,0,13.88,19.35,19.35,0,0,0,4,6,17.46,17.46,0,0,0,6,4,18.39,18.39,0,0,0,13.88,0A17.83,17.83,0,0,0,43.12,43.8Z"/><path class="cls-1" d="M175.76,0a28.83,28.83,0,0,1,11.72,2.39,30.71,30.71,0,0,1,16,16,29.21,29.21,0,0,1,2.39,11.72,28.79,28.79,0,0,1-2.39,11.71,30.71,30.71,0,0,1-16,16,29,29,0,0,1-11.72,2.39A28.67,28.67,0,0,1,164,57.9a30.71,30.71,0,0,1-16-16,29.2,29.2,0,0,1-2.39-11.71A28.83,28.83,0,0,1,148,18.43a30.71,30.71,0,0,1,16-16A29.25,29.25,0,0,1,175.76,0Zm.11,48.58A17.25,17.25,0,0,0,183,47.1a17.6,17.6,0,0,0,5.92-4,19.57,19.57,0,0,0,4-5.92A19.23,19.23,0,0,0,194.42,30a17.24,17.24,0,0,0-1.48-7.16A17.6,17.6,0,0,0,189,17a18.73,18.73,0,0,0-13.09-5.46A17.08,17.08,0,0,0,168.71,13a17.46,17.46,0,0,0-5.92,4,19.39,19.39,0,0,0-4,5.92A17.24,17.24,0,0,0,157.33,30a17.29,17.29,0,0,0,1.48,7.17,19.39,19.39,0,0,0,4,5.92,19.57,19.57,0,0,0,5.92,4A17.24,17.24,0,0,0,175.87,48.58Z"/><path class="cls-1" d="M140.38,43.8a18.91,18.91,0,0,0,4.44-7.17,17.75,17.75,0,0,0,.79-8.08l11.61-1.47A31.37,31.37,0,0,1,156,40.39a30.09,30.09,0,0,1-17.18,18.42,30.25,30.25,0,0,1-22.75.12,28.81,28.81,0,0,1-10-6.6,29.63,29.63,0,0,1-6.6-9.9,30.32,30.32,0,0,1,.11-22.75,29.63,29.63,0,0,1,6.6-9.9A29,29,0,0,1,117.86,2.5a29.55,29.55,0,0,1,13.31-1.25l-1.48,11.38a17.74,17.74,0,0,0-8.08.79,19.79,19.79,0,0,0-7.17,4.44,19.4,19.4,0,0,0-4.09,6,18.26,18.26,0,0,0,0,13.88,19.18,19.18,0,0,0,4,6,17.37,17.37,0,0,0,6,4,18.39,18.39,0,0,0,13.88,0A16.82,16.82,0,0,0,140.38,43.8Z"/><path class="cls-1" d="M59.16,78.27,57.34,67.92V78.27H55.52V65.19H58l1.82,10,1.82-10h2.61V78.27H62.45V67.92L60.63,78.27Z"/><path class="cls-1" d="M74.51,69.39a4.41,4.41,0,0,0-.11-1.25c-.11-.34-.11-.68-.34-.91a1.49,1.49,0,0,0-.57-.57,2,2,0,0,0-1.82,0,1.42,1.42,0,0,0-.57.57,8.13,8.13,0,0,0-.34.91,4.41,4.41,0,0,0-.11,1.25V73.6a7.81,7.81,0,0,0,.11,1.71,2.15,2.15,0,0,0,.45,1,2.26,2.26,0,0,0,.57.46,1.52,1.52,0,0,0,.69.11,1.5,1.5,0,0,0,.68-.11,1.18,1.18,0,0,0,.57-.46,2.15,2.15,0,0,0,.45-1,7.17,7.17,0,0,0,.12-1.71v-.45H72.47V71.67h3.75v6.6H74.85L74.4,76.9c-.11.12-.11.34-.23.46a1.59,1.59,0,0,1-.34.45,2.08,2.08,0,0,1-.57.34,1.37,1.37,0,0,1-.68.12,3.69,3.69,0,0,1-1.14-.12,6.54,6.54,0,0,1-.91-.34,1.58,1.58,0,0,1-.68-.57,4,4,0,0,1-.57-1,11.83,11.83,0,0,1-.34-1.37A9.42,9.42,0,0,1,68.83,73V69.74a10.35,10.35,0,0,1,.22-1.94,3,3,0,0,1,.69-1.48,3.3,3.3,0,0,1,1.13-1A4,4,0,0,1,72.69,65a3.64,3.64,0,0,1,1.6.34,2.8,2.8,0,0,1,1.13.8,2.63,2.63,0,0,1,.69,1.36,9.16,9.16,0,0,1,.22,1.82H74.51Z"/><path class="cls-1" d="M84.75,78.27,82.93,67.92V78.27H81.11V65.19h2.62l1.82,10,1.82-10h2.5V78.27H88.05V67.92L86.23,78.27Z"/><path class="cls-1" d="M100.34,78.27V65.19h2.84a9.16,9.16,0,0,1,1.82.22,1.93,1.93,0,0,1,1.14.69,3.87,3.87,0,0,1,.68,1.13,4,4,0,0,1,.12,1.71v5.12a8.17,8.17,0,0,1-.23,1.82,3.12,3.12,0,0,1-.68,1.36,4.41,4.41,0,0,1-1.14.8,4.15,4.15,0,0,1-1.82.23Zm2.84-1.37a3.2,3.2,0,0,0,1.14-.23,1.4,1.4,0,0,0,.57-.56,2.34,2.34,0,0,0,.23-1V68.14a2.21,2.21,0,0,0-.23-.91,1.49,1.49,0,0,0-.57-.57,2.94,2.94,0,0,0-1.14-.22h-.91V76.67h.91Z"/><path class="cls-1" d="M115.69,72.12h-2.38v4.67h3.29v1.36h-5.11v-13h5.11v1.36h-3.29v4.21h2.38Z"/><path class="cls-1" d="M124.57,78.38a4.37,4.37,0,0,1-1.25-.11,2.3,2.3,0,0,1-.91-.46c-.23-.23-.46-.34-.69-.57a2.29,2.29,0,0,1-.45-.68,8.13,8.13,0,0,1-.34-.91,3,3,0,0,1-.12-1l1.82-.46a2.38,2.38,0,0,0,.12.91,1.29,1.29,0,0,0,.34.91c.23.23.34.46.57.68a1.22,1.22,0,0,0,.91.23,1.2,1.2,0,0,0,1.36-1.36,1.52,1.52,0,0,0-.11-.69c-.11-.22-.11-.34-.23-.56a1.91,1.91,0,0,0-.45-.57l-.57-.57-2.39-1.82-.68-.68a1.92,1.92,0,0,1-.46-.8,3,3,0,0,1-.23-.8c0-.22-.11-.57-.11-.79a4.52,4.52,0,0,1,.23-1.25,4.22,4.22,0,0,1,.57-1,1.63,1.63,0,0,1,1-.68,6,6,0,0,1,1.37-.23,4.06,4.06,0,0,1,1.25.12,6.54,6.54,0,0,1,.91.34,3.07,3.07,0,0,1,.68.57,6.79,6.79,0,0,1,.45.56c.12.23.23.57.35.8a2.3,2.3,0,0,1,.11.91l-1.82.46a2.3,2.3,0,0,0-.11-.8,1.24,1.24,0,0,0-.35-.8,1.46,1.46,0,0,0-.56-.57,2.22,2.22,0,0,0-.91-.22,1.52,1.52,0,0,0-.69.11,1.59,1.59,0,0,0-.45.34.59.59,0,0,0-.23.46c0,.22-.11.34-.11.57a3.39,3.39,0,0,0,.22,1,2.49,2.49,0,0,0,.69.91l2.39,1.82a2.62,2.62,0,0,1,.79.8,3.61,3.61,0,0,1,.57.91,8.13,8.13,0,0,0,.34.91,3,3,0,0,1,.12,1,3.49,3.49,0,0,1-.23,1.14,4.75,4.75,0,0,1-.57,1,3.82,3.82,0,0,1-1,.68A2.07,2.07,0,0,1,124.57,78.38Z"/><path class="cls-1" d="M132.42,65.19h1.82V78.27h-1.82Z"/><path class="cls-1" d="M144.59,69.39a4.41,4.41,0,0,0-.11-1.25c-.12-.34-.12-.68-.34-.91a1.56,1.56,0,0,0-.57-.57,2.22,2.22,0,0,0-.91-.22,2.14,2.14,0,0,0-.91.22,1.42,1.42,0,0,0-.57.57,6.54,6.54,0,0,0-.34.91,4.06,4.06,0,0,0-.12,1.25V73.6a7.17,7.17,0,0,0,.12,1.71,2.06,2.06,0,0,0,.45,1,2.09,2.09,0,0,0,.57.46,1.48,1.48,0,0,0,.68.11,1.52,1.52,0,0,0,.69-.11,1.16,1.16,0,0,0,.56-.46,2.06,2.06,0,0,0,.46-1,7.81,7.81,0,0,0,.11-1.71v-.45h-1.82V71.67h3.76v6.6h-1.37l-.45-1.37c-.12.12-.12.34-.23.46a1.59,1.59,0,0,1-.34.45,2.25,2.25,0,0,1-.57.34,1.39,1.39,0,0,1-.68.12,3.66,3.66,0,0,1-1.14-.12,6.54,6.54,0,0,1-.91-.34,1.58,1.58,0,0,1-.68-.57,3.73,3.73,0,0,1-.57-1,10.07,10.07,0,0,1-.34-1.37A8.65,8.65,0,0,1,138.9,73V69.74a10.32,10.32,0,0,1,.23-1.94,3,3,0,0,1,.68-1.48,3.24,3.24,0,0,1,1.14-1,3.93,3.93,0,0,1,1.82-.34,3.57,3.57,0,0,1,1.59.34,2.84,2.84,0,0,1,1.14.8,2.55,2.55,0,0,1,.68,1.36,8.46,8.46,0,0,1,.23,1.82h-1.82Z"/><path class="cls-1" d="M156.31,78.27,153,69.51v8.76h-1.82V65.19h1.36l3.3,8.07V65.19h1.82V78.27Z"/></g></g></svg>